<svg width="17" height="17" fill="none" xmlns="http://www.w3.org/2000/svg"><path d="M14.038 9.693V13.6a.181.181 0 0 1-.178.178h-2.016a.181.181 0 0 1-.178-.178V9.967c0-.96-.343-1.618-1.206-1.618-.658 0-1.042.439-1.22.864-.069.15-.083.37-.083.576v3.81a.182.182 0 0 1-.178.18H6.977a.182.182 0 0 1-.178-.18c0-.972.028-5.675 0-6.772 0-.096.082-.178.178-.178h2.016c.096 0 .178.082.178.178v.837c0 .013-.014.013-.014.027h.014v-.027c.315-.48.877-1.18 2.139-1.18 1.563 0 2.728 1.029 2.728 3.209ZM3.29 13.792h2.015a.182.182 0 0 0 .178-.178V6.827a.181.181 0 0 0-.178-.178H3.29a.181.181 0 0 0-.179.178v6.787c.014.096.083.178.179.178Zm.946-8.034a1.275 1.275 0 1 0 0-2.55 1.275 1.275 0 0 0 0 2.55Z" fill="#333033"/></svg>