<svg width="26" height="26" fill="none" xmlns="http://www.w3.org/2000/svg"><path d="M21.471 14.824V20.8a.278.278 0 0 1-.273.273h-3.082a.278.278 0 0 1-.272-.273v-5.557c0-1.467-.525-2.474-1.846-2.474-1.006 0-1.593.671-1.866 1.321-.105.231-.125.566-.125.881V20.8a.278.278 0 0 1-.273.273h-3.061a.278.278 0 0 1-.273-.273c0-1.489.042-8.68 0-10.358 0-.147.126-.273.273-.273h3.082c.147 0 .272.126.272.273v1.279c0 .02-.02.02-.02.042h.02v-.042c.483-.734 1.342-1.803 3.271-1.803 2.39 0 4.173 1.572 4.173 4.906Zm-16.439 6.27h3.083a.278.278 0 0 0 .272-.273v-10.38a.278.278 0 0 0-.272-.272H5.032a.278.278 0 0 0-.272.273V20.82c.02.147.126.272.272.272ZM6.48 8.806a1.95 1.95 0 1 0 0-3.9 1.95 1.95 0 0 0 0 3.9Z" fill="#fff"/></svg>