<svg width="35" height="35" fill="none" xmlns="http://www.w3.org/2000/svg"><g clip-path="url(#a)" fill="#6E4ABC"><path fill-rule="evenodd" clip-rule="evenodd" d="M24.31 19.148c1.998 1.356 3.399 3.194 3.399 5.644v4.375h5.833v-4.375c0-3.18-5.207-5.06-9.232-5.644Z"/><path d="M13.126 17.5a5.833 5.833 0 1 0 0-11.667 5.833 5.833 0 0 0 0 11.667Z"/><path fill-rule="evenodd" clip-rule="evenodd" d="M21.875 17.5a5.832 5.832 0 0 0 5.834-5.833 5.832 5.832 0 0 0-5.834-5.834c-.685 0-1.327.146-1.94.35a8.72 8.72 0 0 1 0 10.967c.613.204 1.255.35 1.94.35Zm-8.749 1.458c-3.894 0-11.667 1.954-11.667 5.834v4.375h23.333v-4.375c0-3.88-7.773-5.834-11.666-5.834Z"/></g><defs><clipPath id="a"><path fill="#fff" d="M0 0h35v35H0z"/></clipPath></defs></svg>