<svg width="35" height="35" fill="none" xmlns="http://www.w3.org/2000/svg"><g clip-path="url(#a)"><path d="M4.375 7.292v20.416a2.916 2.916 0 0 0 2.917 2.917h20.416a2.925 2.925 0 0 0 2.917-2.917V7.292a2.925 2.925 0 0 0-2.917-2.917H7.292a2.916 2.916 0 0 0-2.917 2.917Zm17.5 5.833A4.37 4.37 0 0 1 17.5 17.5a4.37 4.37 0 0 1-4.375-4.375A4.37 4.37 0 0 1 17.5 8.75a4.37 4.37 0 0 1 4.375 4.375ZM8.75 24.792c0-2.917 5.833-4.521 8.75-4.521s8.75 1.604 8.75 4.52v1.459H8.75v-1.458Z" fill="#2962EF"/></g><defs><clipPath id="a"><path fill="#fff" d="M0 0h35v35H0z"/></clipPath></defs></svg>