<svg width="225" height="17" fill="none" xmlns="http://www.w3.org/2000/svg"><path d="M21.573 7.694c-.953-.931-2.099-1.397-3.437-1.397H4.867a.879.879 0 0 1-.634-.257.839.839 0 0 1-.265-.627V4.337a.82.82 0 0 1 .265-.61.88.88 0 0 1 .634-.257h17.108a.14.14 0 0 0 .104-.04.122.122 0 0 0 .04-.089V.128c0-.042-.013-.074-.04-.096A.164.164 0 0 0 21.975 0H4.867C3.517 0 2.37.466 1.422 1.398.474 2.329 0 3.454 0 4.77v.209c0 1.328.474 2.458 1.422 3.39.947.93 2.096 1.397 3.445 1.397h13.269c.235 0 .442.083.618.249a.814.814 0 0 1 .265.618v1.076a.814.814 0 0 1-.265.619.875.875 0 0 1-.618.249H1.012a.122.122 0 0 0-.088.04.142.142 0 0 0-.04.105v3.213c0 .032.013.061.04.088.027.027.056.04.088.04h17.124c1.338 0 2.484-.468 3.437-1.405.953-.938 1.43-2.065 1.43-3.382v-.21c0-1.316-.477-2.441-1.43-3.373ZM50.38 0h-3.711a.139.139 0 0 0-.089.032.12.12 0 0 0-.04.096v4.08c0 .354-.182.622-.546.804L38.59 8.08l-7.405-3.068c-.364-.182-.546-.45-.546-.804V.128c0-.042-.01-.074-.032-.096A.14.14 0 0 0 30.509 0H26.8a.138.138 0 0 0-.089.032c-.027.022-.04.054-.04.096v4.675c0 .696.193 1.333.578 1.911.386.579.91 1.007 1.575 1.285l7.774 3.26v4.66c0 .042.014.078.04.104a.14.14 0 0 0 .105.04h3.71a.122.122 0 0 0 .089-.04.14.14 0 0 0 .04-.104V11.26l7.775-3.244a3.567 3.567 0 0 0 1.574-1.294 3.334 3.334 0 0 0 .578-1.903V.129c0-.043-.014-.075-.04-.097a.14.14 0 0 0-.09-.032Zm27.56 0h-3.71c-.043 0-.075.013-.097.04a.137.137 0 0 0-.032.088v12.466h-1.558c-.289 0-.535-.129-.739-.386L64.608 1.687C63.837.605 62.771.043 61.411 0h-6.2a.142.142 0 0 0-.104.04.122.122 0 0 0-.04.088v15.807a.12.12 0 0 0 .04.088c.026.027.061.04.104.04h3.711a.123.123 0 0 0 .088-.04.122.122 0 0 0 .04-.088V3.47h1.559c.289 0 .535.134.738.401l7.197 10.521c.771 1.082 1.836 1.64 3.196 1.671h6.201c.043 0 .075-.013.096-.04a.138.138 0 0 0 .032-.088V.128a.14.14 0 0 0-.032-.088c-.022-.027-.054-.04-.096-.04Zm26.822 0h-22.73c-.042 0-.075.013-.096.04a.137.137 0 0 0-.032.088v3.213c0 .032.01.062.032.088.021.027.054.04.097.04h9.38v12.466c0 .032.011.062.032.088.022.027.054.04.097.04h3.71c.044 0 .076-.013.097-.04a.139.139 0 0 0 .032-.088V3.47h9.381a.139.139 0 0 0 .104-.04.122.122 0 0 0 .04-.089V.128a.122.122 0 0 0-.04-.088.139.139 0 0 0-.104-.04Zm27.561 0h-3.711a.123.123 0 0 0-.088.04.12.12 0 0 0-.039.088v6.169h-15.036V.128a.126.126 0 0 0-.04-.088.144.144 0 0 0-.104-.04h-3.712a.124.124 0 0 0-.088.04.126.126 0 0 0-.04.088v15.807c0 .032.014.062.04.088.027.027.057.04.088.04h3.712a.142.142 0 0 0 .104-.04.125.125 0 0 0 .04-.088V9.767h15.036v6.168a.12.12 0 0 0 .039.088c.028.027.056.04.088.04h3.711a.143.143 0 0 0 .105-.04.125.125 0 0 0 .04-.088V.128a.126.126 0 0 0-.04-.088.143.143 0 0 0-.105-.04Zm27.466 0h-18.008c-1.338 0-2.485.466-3.438 1.397-.953.932-1.429 2.057-1.429 3.374v6.505c0 1.328.476 2.458 1.429 3.39.953.931 2.1 1.398 3.438 1.398h18.008c.032 0 .06-.014.088-.04a.128.128 0 0 0 .039-.089v-3.213c0-.042-.013-.074-.039-.096a.142.142 0 0 0-.088-.032h-18.008a.856.856 0 0 1-.627-.257.835.835 0 0 1-.257-.61v-1.96h18.88a.12.12 0 0 0 .096-.04.14.14 0 0 0 .031-.089V6.425c0-.042-.01-.074-.031-.096-.022-.021-.054-.032-.096-.032h-18.88v-1.96c0-.235.086-.439.257-.61a.856.856 0 0 1 .627-.257h18.008c.032 0 .06-.014.088-.04a.128.128 0 0 0 .039-.089V.128a.124.124 0 0 0-.039-.088.126.126 0 0 0-.088-.04Zm27.431 0h-22.73c-.043 0-.076.013-.097.04a.14.14 0 0 0-.032.088v3.213a.14.14 0 0 0 .032.088c.021.027.054.04.097.04h9.381v12.466c0 .032.01.062.032.088.022.027.054.04.096.04h3.711c.043 0 .075-.013.096-.04a.14.14 0 0 0 .032-.088V3.47h9.381a.14.14 0 0 0 .104-.04.118.118 0 0 0 .04-.089V.128a.118.118 0 0 0-.04-.088.136.136 0 0 0-.103-.04Zm8.639.032c-.022-.021-.054-.032-.096-.032h-3.711c-.043 0-.075.01-.096.032-.022.022-.032.054-.032.096v15.807c0 .032.01.062.032.088.021.027.053.04.096.04h3.711c.042 0 .074-.013.096-.04a.135.135 0 0 0 .032-.088V.128c0-.042-.01-.074-.032-.096Zm10.244 3.872a.763.763 0 0 0-.594-.273h-4.82a.142.142 0 0 1-.104-.04.125.125 0 0 1-.04-.089V.29c0-.032.014-.062.04-.089a.144.144 0 0 1 .104-.04h5.093c1.285 0 2.393.52 3.325 1.558l1.236 1.494-2.408 2.907-1.832-2.216Zm8.898-2.2c.932-1.03 2.046-1.544 3.342-1.544h5.075c.044 0 .076.01.097.032.021.022.032.054.032.097v3.212a.14.14 0 0 1-.032.088c-.021.027-.053.04-.097.04H218.6a.76.76 0 0 0-.594.274l-3.551 4.273 3.567 4.304c.16.172.353.258.578.258h4.818c.044 0 .076.013.097.04a.165.165 0 0 1 .032.104v3.213a.14.14 0 0 1-.032.088c-.021.027-.053.04-.097.04h-5.075c-1.295 0-2.404-.519-3.325-1.558l-2.956-3.566-2.955 3.566c-.932 1.039-2.046 1.558-3.341 1.558h-5.077c-.042 0-.075-.013-.096-.04a.158.158 0 0 1-.032-.105v-3.212c0-.032.01-.062.032-.089.021-.026.054-.04.096-.04h4.82a.79.79 0 0 0 .594-.273l3.486-4.208 5.412-6.554Z" fill="#232427"/></svg>