<svg width="30" height="30" fill="none" xmlns="http://www.w3.org/2000/svg"><path d="M15 29.55c8.035 0 14.55-6.514 14.55-14.55C29.55 6.964 23.034.45 15 .45 6.962.45.45 6.964.45 15c0 8.036 6.513 14.55 14.55 14.55Z" fill="#232427"/><path d="m21.366 20.798-4.92-11.895c-.277-.615-.69-.915-1.233-.915h-.435c-.544 0-.957.3-1.234.915l-2.141 5.182h-1.62a.887.887 0 0 0-.882.881v.012a.89.89 0 0 0 .882.88h.87l-2.044 4.94c-.038.108-.06.22-.06.337 0 .278.086.495.24.664.154.169.375.251.652.251a.872.872 0 0 0 .507-.169c.157-.108.266-.266.352-.446l2.25-5.58h1.56a.888.888 0 0 0 .881-.881v-.023a.89.89 0 0 0-.88-.88h-.833l1.717-4.28 4.68 11.64c.086.18.195.338.353.447a.881.881 0 0 0 .506.168c.277 0 .495-.082.652-.25.158-.17.24-.387.24-.665a.786.786 0 0 0-.06-.333Z" fill="#FAFAFA"/></svg>