<svg width="30" height="30" fill="none" xmlns="http://www.w3.org/2000/svg"><g clip-path="url(#a)" fill-rule="evenodd" clip-rule="evenodd" fill="#232427"><path d="M14.585 29.045c8.057 0 14.584-6.496 14.584-14.522C29.17 6.496 22.642 0 14.585 0 6.527 0 0 6.496 0 14.523c0 8.026 6.527 14.522 14.585 14.522Zm0-4.997c5.902 0 10.65-4.747 10.65-10.587s-4.779-8.277-10.65-8.277c-5.903 0-10.65 2.405-10.65 8.277-.031 5.871 4.747 10.587 10.65 10.587Z"/><path d="M8.276 15.179c.624 0 1.187-.25 1.624-.625.218.406.5.843.75 1.28.562.938 1.186 1.906 1.748 2.624.281.375.594.719.875.968.25.219.687.531 1.187.531s.936-.312 1.186-.53c.313-.25.625-.594.906-.938.593-.718 1.25-1.686 1.843-2.623.28-.469.562-.906.812-1.343.437.406 1.03.687 1.655.687 1.311 0 2.405-1.062 2.405-2.374 0-1.311-1.062-2.373-2.405-2.373-1.062 0-1.999.718-2.28 1.686a3.4 3.4 0 0 0-.187.344 54.85 54.85 0 0 1-1.468 2.498c-.562.906-1.187 1.812-1.718 2.437-.281.312-.5.562-.687.718-.031.031-.062.031-.062.062-.032 0-.032-.03-.063-.062a3.878 3.878 0 0 1-.656-.718c-.5-.656-1.093-1.53-1.624-2.437a94.392 94.392 0 0 1-1.405-2.498c-.063-.094-.094-.187-.125-.25a2.408 2.408 0 0 0-2.311-1.78c-1.312 0-2.405 1.062-2.405 2.373 0 1.281 1.062 2.343 2.405 2.343Z"/></g><defs><clipPath id="a"><path fill="#fff" d="M0 0h30v30H0z"/></clipPath></defs></svg>