<svg width="65" height="20" fill="none" xmlns="http://www.w3.org/2000/svg"><g clip-path="url(#a)" fill="#232427"><path d="M59.398 0 45.586 19.822h4.24L63.71 0h-4.312Zm-9.13 0 4.064 5.841-2.12 3.186L45.939 0h4.33Zm9.54 19.823-4.505-6.46 2.12-3.097 6.626 9.557h-4.24Z"/><path fill-rule="evenodd" clip-rule="evenodd" d="M40.64 0h3.71v19.822h-3.71v-.74a7.504 7.504 0 0 1-3.611.918c-4.154 0-7.521-3.358-7.521-7.5 0-4.142 3.367-7.5 7.52-7.5 1.31 0 2.54.333 3.611.92V0Zm-3.65 16.71a4.254 4.254 0 0 0 4.26-4.248 4.254 4.254 0 0 0-4.26-4.248 4.254 4.254 0 0 0-4.26 4.248 4.254 4.254 0 0 0 4.26 4.248Z"/><path d="M29.876 0 16.078 19.822h4.326L34.188 0h-4.312Zm-9.468 0 4.329 6.018-2.385 3.363L15.902 0h4.506Z"/><path fill-rule="evenodd" clip-rule="evenodd" d="M11.131 0h3.71v19.822h-3.71v-.74a7.504 7.504 0 0 1-3.61.918C3.367 20 0 16.642 0 12.5 0 8.358 3.367 5 7.521 5a7.49 7.49 0 0 1 3.61.92V0Zm-3.65 16.71a4.254 4.254 0 0 0 4.26-4.248 4.254 4.254 0 0 0-4.26-4.248 4.254 4.254 0 0 0-4.26 4.248 4.254 4.254 0 0 0 4.26 4.248Z"/></g><defs><clipPath id="a"><path fill="#fff" d="M0 0h64.138v20H0z"/></clipPath></defs></svg>