<svg width="18" height="18" fill="none" xmlns="http://www.w3.org/2000/svg"><path d="M18 3.981a7.694 7.694 0 0 1-2.126.583 3.67 3.67 0 0 0 1.623-2.04 7.373 7.373 0 0 1-2.34.894A3.69 3.69 0 0 0 8.774 5.94c0 .292.025.574.085.841a10.445 10.445 0 0 1-7.606-3.86 3.696 3.696 0 0 0 1.134 4.933A3.645 3.645 0 0 1 .72 7.4v.04a3.707 3.707 0 0 0 2.957 3.626 3.686 3.686 0 0 1-.968.122 3.27 3.27 0 0 1-.699-.063 3.724 3.724 0 0 0 3.449 2.57A7.414 7.414 0 0 1 .883 15.27c-.302 0-.593-.014-.883-.051a10.39 10.39 0 0 0 5.661 1.656c6.79 0 10.503-5.625 10.503-10.5 0-.164-.006-.322-.014-.478A7.362 7.362 0 0 0 18 3.981Z" fill="#5E5C6C"/></svg>