<svg width="20" height="20" fill="none" xmlns="http://www.w3.org/2000/svg"><path d="M20 4.424a8.548 8.548 0 0 1-2.363.647 4.077 4.077 0 0 0 1.804-2.266 8.193 8.193 0 0 1-2.6.993A4.1 4.1 0 0 0 9.75 6.6c0 .325.027.638.095.935a11.605 11.605 0 0 1-8.451-4.288 4.106 4.106 0 0 0 1.26 5.48A4.05 4.05 0 0 1 .8 8.223v.045a4.119 4.119 0 0 0 3.285 4.028c-.35.093-.712.138-1.075.135-.26.005-.52-.018-.776-.07a4.139 4.139 0 0 0 3.831 2.857 8.237 8.237 0 0 1-5.084 1.748A7.73 7.73 0 0 1 0 16.91a11.542 11.542 0 0 0 6.29 1.84c7.545 0 11.67-6.25 11.67-11.667 0-.182-.006-.357-.015-.53A8.18 8.18 0 0 0 20 4.423Z" fill="#fff"/></svg>