<svg width="25" height="16" fill="none" xmlns="http://www.w3.org/2000/svg"><g clip-path="url(#a)"><path d="M16.3 7.767c-2.243-1.116-4.391-2.142-6.587-3.214v6.41c2.31-1.17 4.747-2.24 6.597-3.196h-.01Z" fill="#fff"/><path d="M16.3 7.767c-2.243-1.116-6.587-3.214-6.587-3.214l5.792 3.624s-1.055.545.796-.41Z" fill="#E8E0E0"/><path d="M10.135 15.98c-4.66-.08-6.252-.152-7.23-.34-.663-.125-1.238-.402-1.66-.803-.326-.304-.585-.768-.786-1.41-.173-.537-.24-.982-.336-2.072-.146-2.458-.181-4.467 0-6.712.15-1.24.223-2.712 1.218-3.571a3.36 3.36 0 0 1 1.63-.768c.96-.17 5.044-.303 9.273-.303 4.22 0 8.314.134 9.274.303.767.134 1.486.536 1.908 1.054.908 1.33.924 2.982 1.016 4.276.038.616.038 4.115 0 4.73-.143 2.045-.259 2.768-.585 3.517-.201.474-.373.723-.671 1a3.307 3.307 0 0 1-1.707.813c-4.033.282-7.458.343-11.344.285Zm6.175-8.213c-2.243-1.116-4.392-2.151-6.588-3.222v6.409c2.311-1.17 4.747-2.24 6.598-3.196l-.01.009Z" fill="#CD201F"/></g><defs><clipPath id="a"><path fill="#fff" d="M0 0h24.471v16H0z"/></clipPath></defs></svg>